<svg width="24" height="25" viewBox="0 0 24 25" fill="none" xmlns="http://www.w3.org/2000/svg">
<mask id="mask0_1_26" style="mask-type:alpha" maskUnits="userSpaceOnUse" x="0" y="0" width="24" height="25">
<rect y="0.5" width="24" height="24" fill="#D9D9D9"/>
</mask>
<g mask="url(#mask0_1_26)">
<path d="M8 11.5C8.28333 11.5 8.52083 11.4042 8.7125 11.2125C8.90417 11.0208 9 10.7833 9 10.5C9 10.2167 8.90417 9.97917 8.7125 9.7875C8.52083 9.59583 8.28333 9.5 8 9.5C7.71667 9.5 7.47917 9.59583 7.2875 9.7875C7.09583 9.97917 7 10.2167 7 10.5C7 10.7833 7.09583 11.0208 7.2875 11.2125C7.47917 11.4042 7.71667 11.5 8 11.5ZM12 11.5C12.2833 11.5 12.5208 11.4042 12.7125 11.2125C12.9042 11.0208 13 10.7833 13 10.5C13 10.2167 12.9042 9.97917 12.7125 9.7875C12.5208 9.59583 12.2833 9.5 12 9.5C11.7167 9.5 11.4792 9.59583 11.2875 9.7875C11.0958 9.97917 11 10.2167 11 10.5C11 10.7833 11.0958 11.0208 11.2875 11.2125C11.4792 11.4042 11.7167 11.5 12 11.5ZM16 11.5C16.2833 11.5 16.5208 11.4042 16.7125 11.2125C16.9042 11.0208 17 10.7833 17 10.5C17 10.2167 16.9042 9.97917 16.7125 9.7875C16.5208 9.59583 16.2833 9.5 16 9.5C15.7167 9.5 15.4792 9.59583 15.2875 9.7875C15.0958 9.97917 15 10.2167 15 10.5C15 10.7833 15.0958 11.0208 15.2875 11.2125C15.4792 11.4042 15.7167 11.5 16 11.5ZM2 22.5V4.5C2 3.95 2.19583 3.47917 2.5875 3.0875C2.97917 2.69583 3.45 2.5 4 2.5H20C20.55 2.5 21.0208 2.69583 21.4125 3.0875C21.8042 3.47917 22 3.95 22 4.5V16.5C22 17.05 21.8042 17.5208 21.4125 17.9125C21.0208 18.3042 20.55 18.5 20 18.5H6L2 22.5ZM5.15 16.5H20V4.5H4V17.625L5.15 16.5Z" fill="white"/>
</g>
</svg>
