<svg width="43" height="42" viewBox="0 0 43 42" fill="none" xmlns="http://www.w3.org/2000/svg">
<mask id="mask0_1_50" style="mask-type:alpha" maskUnits="userSpaceOnUse" x="0" y="0" width="43" height="42">
<rect x="0.5" width="42" height="42" fill="#D9D9D9"/>
</mask>
<g mask="url(#mask0_1_50)">
<path d="M21.5 19.9229C20.0562 19.9229 18.8203 19.4088 17.7922 18.3807C16.7641 17.3526 16.25 16.1166 16.25 14.6729C16.25 13.2291 16.7641 11.9932 17.7922 10.965C18.8203 9.93691 20.0562 9.42285 21.5 9.42285C22.9438 9.42285 24.1797 9.93691 25.2078 10.965C26.2359 11.9932 26.75 13.2291 26.75 14.6729C26.75 16.1166 26.2359 17.3526 25.2078 18.3807C24.1797 19.4088 22.9438 19.9229 21.5 19.9229ZM9.25 32.5768V29.6959C9.25 28.9735 9.46034 28.2976 9.88101 27.6683C10.3017 27.039 10.8676 26.5504 11.5789 26.2027C13.2301 25.4107 14.8825 24.8167 16.536 24.4207C18.1896 24.0247 19.8442 23.8267 21.5 23.8267C23.1558 23.8267 24.8104 24.0247 26.464 24.4207C28.1175 24.8167 29.7699 25.4107 31.4211 26.2027C32.1324 26.5504 32.6983 27.039 33.119 27.6683C33.5397 28.2976 33.75 28.9735 33.75 29.6959V32.5768H9.25ZM11 30.8267H32V29.6959C32 29.3078 31.8749 28.9432 31.6248 28.6022C31.3746 28.2612 31.0285 27.9729 30.5865 27.7373C29.1462 27.0395 27.6611 26.505 26.1312 26.1337C24.6014 25.7624 23.0576 25.5767 21.5 25.5767C19.9424 25.5767 18.3986 25.7624 16.8688 26.1337C15.339 26.505 13.8538 27.0395 12.4135 27.7373C11.9715 27.9729 11.6254 28.2612 11.3752 28.6022C11.1251 28.9432 11 29.3078 11 29.6959V30.8267ZM21.5 18.1729C22.4625 18.1729 23.2865 17.8302 23.9719 17.1448C24.6573 16.4594 25 15.6354 25 14.6729C25 13.7104 24.6573 12.8864 23.9719 12.201C23.2865 11.5156 22.4625 11.1729 21.5 11.1729C20.5375 11.1729 19.7135 11.5156 19.0281 12.201C18.3427 12.8864 18 13.7104 18 14.6729C18 15.6354 18.3427 16.4594 19.0281 17.1448C19.7135 17.8302 20.5375 18.1729 21.5 18.1729Z" fill="white"/>
</g>
</svg>
